<svg id="Logo" xmlns="http://www.w3.org/2000/svg" xmlns:xlink="http://www.w3.org/1999/xlink" width="100" height="100" viewBox="0 0 200 200">
  <defs>
    <style>
      .cls-1 {
        fill: url(#linear-gradient);
      }

      .cls-2, .cls-3 {
        fill: #fff;
      }

      .cls-2 {
        fill-rule: evenodd;
      }

      .cls-3 {
        font-size: 42px;
        text-anchor: middle;
        font-family: "Times New Roman";
      }
    </style>
    <linearGradient id="linear-gradient" x1="100" y1="200" x2="100" gradientUnits="userSpaceOnUse">
      <stop offset="0" stop-color="#fbe467"/>
      <stop offset="0.133" stop-color="#fe6ac4"/>
      <stop offset="0.326" stop-color="#7155fe"/>
      <stop offset="0.522" stop-color="#24247b"/>
      <stop offset="1"/>
    </linearGradient>
  </defs>
  <circle class="cls-1" cx="100" cy="100" r="100"/>
  <path id="T_Z_Shape" data-name="T Z Shape" class="cls-2" d="M37.8,64.873l-0.683,13.7h1.622a12.8,12.8,0,0,1,1.878-6.288,7.923,7.923,0,0,1,3.8-3.144,19.234,19.234,0,0,1,5.761-.6h6.956v44.617q0,4.91-.939,6.287-1.536,2.239-5.206,2.24H48.94v1.593H73.478v-1.593H71.472a6.373,6.373,0,0,1-4.993-1.809q-1.152-1.335-1.152-6.718V68.534h8.151a12.187,12.187,0,0,1,5.782,1.184A8.617,8.617,0,0,1,82.781,73.4a16.686,16.686,0,0,1,1.28,5.168h1.622l-0.64-13.7H37.8Zm81.292,0-1.195,14.6h1.622a24.73,24.73,0,0,1,1.984-7.171,7.141,7.141,0,0,1,3.158-2.928q2.07-1.011,6.679-1.012h18.521l-37.127,53.316v1.593h47.113l2.731-15.461-1.408-.258q-2.263,7.365-5.185,9.776T147.6,119.74H123.874L161.9,64.873h-42.8Z"/>
  <text id="T_Z_Text" data-name="T Z Text" class="cls-3" transform="translate(-262.986 67.545) scale(1.909)"><tspan x="0">T Z</tspan></text>
</svg>
